<svg version="1.1" id="Layer_1" xmlns="http://www.w3.org/2000/svg" xmlns:xlink="http://www.w3.org/1999/xlink" x="0px" y="0px"
	 width="100%" viewBox="0 0 800 800" enable-background="new 0 0 800 800" xml:space="preserve">
<path fill="#000000" opacity="1.000000" stroke="none" 
	d="
M392.001038,49.669949 
	C430.936981,48.394230 468.527039,53.654110 505.154541,65.157066 
	C563.901428,83.606674 614.592041,115.158302 656.834839,160.049835 
	C703.090942,209.206329 732.728699,266.987640 746.023132,333.129059 
	C751.754395,361.642365 753.861633,390.543671 752.106262,419.505554 
	C747.411499,496.963013 720.949646,566.089111 671.007507,625.838440 
	C628.292053,676.941956 575.369385,713.254333 512.216553,734.469666 
	C490.731812,741.687134 468.635468,746.339294 446.160309,749.450378 
	C424.624786,752.431335 402.978119,753.329346 381.397339,752.076416 
	C339.053650,749.618042 298.055420,740.417969 259.340637,722.827454 
	C171.539825,682.934387 109.271790,618.257996 73.324860,528.665344 
	C61.753323,499.824890 54.792664,469.763275 51.532642,438.788971 
	C44.942131,376.170807 53.935661,315.935944 79.451111,258.452606 
	C102.989838,205.422546 137.676971,160.776627 183.436020,124.896423 
	C226.754257,90.930077 275.197906,67.872864 329.169556,56.752655 
	C349.710663,52.520409 370.456482,49.672958 392.001038,49.669949 
M619.574280,663.064087 
	C666.669800,623.482300 700.783936,574.768677 721.940613,517.035645 
	C736.931091,476.129089 743.431641,433.878448 741.970947,390.292999 
	C741.367737,372.291321 739.755371,354.443756 736.370056,336.808838 
	C729.574707,301.410675 717.505920,267.856415 700.023438,236.281067 
	C666.988525,176.616318 620.249451,130.841904 560.101501,98.879784 
	C519.799500,77.463638 476.834503,65.014969 431.254608,61.023220 
	C403.201324,58.566395 375.336487,59.604301 347.654297,63.617645 
	C319.914124,67.639404 293.075928,75.620712 267.262421,86.655594 
	C215.097015,108.955505 171.043335,142.104156 135.429337,186.299652 
	C86.726608,246.737701 61.899712,316.056824 59.460342,393.418365 
	C58.603340,420.597107 61.244198,447.613922 67.401436,474.134521 
	C89.202530,568.036560 141.051666,640.896729 222.686157,691.878967 
	C280.367828,727.902100 343.760406,744.133545 411.870117,741.862183 
	C428.367584,741.312012 444.684021,739.717102 460.912048,736.861389 
	C520.126770,726.440979 572.701660,701.711243 619.574280,663.064087 
z"/>
<path fill="#000000" opacity="1.000000" stroke="none" 
	d="
M396.279297,436.354645 
	C393.140869,437.548126 391.391785,439.865936 389.775940,442.145508 
	C387.660706,445.129547 385.636475,444.926880 383.183289,442.705963 
	C380.972809,440.704865 378.438538,439.022949 376.426575,436.849030 
	C371.941132,432.002472 365.871826,430.285553 359.784088,427.812347 
	C358.140442,432.207458 356.259460,436.445953 354.992004,440.860596 
	C353.844208,444.858429 353.285278,449.025116 355.770172,452.939270 
	C356.374390,453.891022 356.873352,455.160706 356.808075,456.247375 
	C356.189545,466.541748 363.732910,470.376740 370.988892,474.550232 
	C376.501678,477.721039 379.661072,483.630768 385.735352,486.457489 
	C383.882019,488.816010 382.233337,488.020813 380.784760,487.507629 
	C364.728027,481.819214 350.637207,473.592987 342.741425,457.549561 
	C340.505981,453.007324 336.396210,450.280060 332.638367,447.356873 
	C329.621674,445.010284 326.892303,442.884521 326.626984,438.748566 
	C326.576721,437.964783 325.872925,437.241760 325.717712,436.442719 
	C324.934753,432.411926 320.302429,428.453033 322.493622,424.890350 
	C325.426605,420.121521 328.174561,414.558136 333.562500,411.765259 
	C337.890961,409.521545 337.979675,407.199524 335.739746,403.047638 
	C330.192993,392.766052 326.755127,381.592712 323.686920,370.357605 
	C322.174377,364.819000 319.341858,359.503632 320.354675,353.410614 
	C320.528168,352.366791 320.157257,350.876038 319.465912,350.103516 
	C315.376831,345.534424 315.215332,340.529114 316.891815,334.928894 
	C317.670593,332.327423 315.331024,331.194061 313.164795,330.482452 
	C305.089447,327.829620 301.048126,322.188049 300.682495,313.638367 
	C300.491455,309.171478 299.524078,304.768066 298.816071,300.345551 
	C297.532440,292.327606 296.704681,284.036530 301.976196,276.843384 
	C303.938660,274.165527 304.040527,270.917755 305.455048,268.076050 
	C311.605865,255.719360 322.104095,246.616241 329.765350,235.375656 
	C332.633942,231.166840 338.341339,230.573090 342.985168,228.853210 
	C348.587311,226.778427 353.724457,223.549744 359.716614,222.413559 
	C363.049194,221.781662 366.369232,221.447174 369.631836,222.178238 
	C373.707550,223.091461 377.247650,222.667877 381.152588,220.803558 
	C386.155701,218.414948 391.631805,219.570343 396.746368,221.338394 
	C399.823059,222.401962 402.797485,222.245651 406.001984,222.190201 
	C422.089325,221.911880 437.988678,222.632309 447.962524,238.387894 
	C450.983276,243.159698 453.392212,248.532043 451.887878,253.947021 
	C449.962799,260.876312 451.685242,265.038361 458.249847,267.490387 
	C458.844421,267.712463 459.325073,268.239746 460.206696,268.876770 
	C457.872620,271.209961 459.435211,272.446930 461.221680,274.264801 
	C467.409912,280.561707 469.619904,288.389069 468.673401,297.076050 
	C468.485291,298.802582 468.081573,300.742828 466.258362,301.744171 
	C464.340118,301.946930 465.357697,299.233887 463.682678,299.238617 
	C462.744995,299.506958 462.501007,300.326019 462.284668,301.112640 
	C461.335663,304.563171 460.078552,306.718445 456.079773,308.661438 
	C447.663910,312.750610 445.078308,321.595245 444.280121,330.423065 
	C443.881775,334.828888 444.751801,339.386719 445.338074,343.837585 
	C447.446625,359.844635 447.206421,375.642181 442.181305,391.195068 
	C439.375732,399.878357 435.560822,408.181396 429.288391,414.620056 
	C424.883728,419.141510 418.427979,421.589661 413.290924,425.493652 
	C407.985168,429.525909 401.325928,431.330475 396.279297,436.354645 
M373.537781,266.123718 
	C364.277985,269.248077 354.896332,272.060791 345.804688,275.615265 
	C340.468048,277.701630 338.077698,283.286987 334.909058,287.663025 
	C328.500580,296.513367 322.648682,305.418457 321.162872,317.007294 
	C319.712524,328.319183 322.957367,338.757629 324.170166,349.564972 
	C325.207611,358.810120 329.200470,367.406342 330.620789,376.628387 
	C331.242432,380.664917 332.296234,385.176483 336.278503,387.347107 
	C340.157867,389.461609 343.702759,391.689697 346.135620,395.462982 
	C346.579834,396.151886 347.405334,396.550598 348.275513,395.856049 
	C348.950043,394.871490 348.712311,393.765656 348.047211,393.082916 
	C344.967102,389.921143 346.325714,386.736694 347.630371,383.385284 
	C349.418884,378.791138 352.800293,376.453125 357.372131,374.905823 
	C360.215424,373.943542 364.274139,373.230042 363.824677,368.653473 
	C363.686829,367.249969 362.299500,365.786224 364.166138,364.717865 
	C366.049164,363.640198 367.227020,365.001007 368.393524,366.269714 
	C372.491394,370.726532 376.978790,373.247772 383.199554,370.089294 
	C385.490906,368.925903 388.240570,368.862946 390.875427,371.581879 
	C381.304047,376.983765 370.195312,375.827545 360.532196,380.805511 
	C365.397644,383.852936 359.233337,389.475647 364.591309,392.232422 
	C358.414673,396.604340 356.943207,388.927429 352.876343,388.427277 
	C350.489532,390.511383 351.328003,392.886353 351.920197,395.306244 
	C353.084503,400.064209 355.981171,404.018311 357.848907,408.411377 
	C361.651886,417.356171 369.899292,419.082001 377.674622,421.730316 
	C379.139160,422.229156 380.670624,421.727173 381.844940,420.618896 
	C384.244995,418.353851 386.957642,417.819061 390.147736,418.661865 
	C391.727142,419.079163 393.714966,419.315186 395.013153,418.273651 
	C401.524414,413.049835 410.996796,410.973297 413.162689,401.048553 
	C413.723206,398.479919 415.706329,397.256012 417.873993,399.747711 
	C420.467499,402.728973 421.965302,401.030090 422.982361,398.634796 
	C424.074585,396.062592 425.863861,394.342804 427.930054,392.577423 
	C434.741455,386.757660 439.723785,379.930878 438.818970,370.275818 
	C438.481384,366.673706 439.692017,363.295532 440.999146,360.100342 
	C442.862946,355.544403 442.893829,351.107178 441.770416,346.433044 
	C441.153259,343.865021 440.880768,341.187683 440.711578,338.543121 
	C440.030579,327.897400 437.836853,317.492523 435.866333,307.049683 
	C435.605713,305.668579 434.995422,304.444763 433.773834,303.789520 
	C425.552399,299.379303 422.177856,291.392883 418.426300,283.564850 
	C416.735626,280.037140 415.783234,275.578033 412.418762,273.502991 
	C408.666718,271.188873 405.453613,268.561737 402.421173,265.421051 
	C399.476532,262.371368 395.925446,260.289215 391.221130,261.630981 
	C385.638702,263.223175 379.977539,264.539276 373.537781,266.123718 
M346.548309,430.059113 
	C345.578461,430.932220 343.811340,431.191376 344.049438,433.434509 
	C346.771851,432.559601 349.286957,431.936371 350.793884,427.881104 
	C348.769928,428.883575 347.920197,429.304443 346.548309,430.059113 
z"/>
<path fill="#000000" opacity="1.000000" stroke="none" 
	d="
M328.031891,460.966583 
	C321.786163,462.982147 315.543274,465.006622 309.293213,467.008698 
	C306.924072,467.767578 304.548950,468.511780 302.157806,469.197205 
	C297.958862,470.400726 295.812103,473.290863 296.776001,477.446014 
	C300.338562,492.803802 299.531952,508.321686 297.733307,523.655945 
	C296.837280,531.294617 297.538513,538.479980 298.582336,545.835327 
	C298.791168,547.307007 299.214111,548.784668 299.778809,550.160889 
	C300.584412,552.124268 301.220154,554.582764 303.965698,554.475464 
	C307.068237,554.354187 308.120972,551.885742 308.504333,549.327698 
	C309.367035,543.571106 310.018829,537.782471 310.733002,532.004089 
	C312.386322,518.627319 314.006897,505.246490 315.693878,491.873993 
	C315.913818,490.130463 315.793182,487.648346 318.105774,487.505981 
	C320.683441,487.347260 320.856964,489.988586 321.395660,491.827667 
	C322.979370,497.234039 321.935699,502.774353 321.948517,508.239838 
	C321.977356,520.557373 321.643341,532.923706 324.475830,544.982788 
	C326.714020,554.511719 329.484558,563.947327 333.538147,572.914429 
	C334.352081,574.714966 335.550354,576.382446 336.782288,577.945068 
	C339.457458,581.338318 343.422180,581.582825 346.818939,580.312439 
	C350.348480,578.992432 348.414337,575.490845 348.079346,572.830688 
	C347.975677,572.007690 347.665405,571.210266 347.566864,570.387085 
	C346.818817,564.139099 344.575562,557.908264 352.802307,553.923340 
	C361.265686,549.823730 360.451080,541.308044 359.453491,533.726135 
	C358.431366,525.958069 358.008545,518.150391 357.090363,510.384705 
	C356.978821,509.441437 356.808655,508.387543 357.984161,507.339508 
	C360.297791,509.958130 360.865936,513.058838 361.180908,516.363770 
	C361.699554,521.805847 361.783997,527.352356 364.595154,532.338440 
	C365.534576,534.004700 365.139038,535.916626 364.932068,537.742126 
	C364.033936,545.663635 363.079102,553.579468 362.286682,561.511536 
	C362.079651,563.583923 361.696747,565.809021 363.216125,567.947876 
	C365.867432,566.996765 364.063141,563.219543 366.809174,562.540405 
	C367.931305,562.282898 368.682800,562.962463 368.999176,563.966492 
	C371.010895,570.350220 375.054565,575.242493 379.822266,579.808289 
	C388.300171,587.927246 401.691132,589.792847 411.804199,583.669434 
	C415.335205,581.531433 418.618958,581.834961 421.540314,584.195923 
	C426.696716,588.363342 432.451996,589.638062 438.865570,588.869690 
	C442.725342,588.407349 446.486908,589.311096 450.289185,589.766052 
	C458.130035,590.704163 461.106110,587.924805 462.093536,580.105347 
	C463.030365,572.686768 461.142853,565.519348 460.782440,558.227112 
	C459.946198,541.306763 458.383606,524.420166 456.981567,507.531036 
	C456.365753,500.112579 455.386536,499.772980 447.744476,500.778015 
	C439.701691,501.835785 431.770386,503.917389 423.528564,503.440063 
	C419.682007,503.217255 416.445740,501.864105 413.402832,499.682861 
	C409.425598,496.831909 409.445831,495.079559 413.796295,493.037720 
	C417.704773,491.203308 421.752716,489.666931 425.732758,487.984009 
	C432.729340,485.025543 438.643738,480.532715 444.018768,475.228638 
	C445.573059,473.694824 446.952179,471.375305 450.114075,472.711914 
	C450.288147,476.159027 449.495758,478.612274 446.191559,480.903107 
	C438.028259,486.562683 429.471039,491.769043 421.707214,499.120789 
	C424.814911,500.300751 427.370392,499.716370 429.819458,499.196838 
	C440.270569,496.979858 451.078705,497.584747 461.501923,495.086975 
	C463.677948,494.565460 466.386566,494.962250 465.718140,498.206390 
	C464.079163,506.160950 466.564972,513.768372 467.306763,521.507141 
	C468.323059,532.109802 469.180878,542.625366 468.596161,553.360474 
	C468.093140,562.595520 469.380554,571.966858 470.349823,581.228394 
	C470.906311,586.546082 473.962860,587.864197 479.282074,586.326782 
	C482.358002,585.437805 485.280640,583.427185 488.997894,584.333740 
	C488.784332,587.147827 486.456543,587.413391 484.868500,588.157532 
	C467.570221,596.263428 449.408051,601.698486 430.500671,604.121887 
	C395.630157,608.591309 361.337952,606.114990 328.338440,593.177124 
	C276.493011,572.850403 238.480820,537.588318 214.988373,486.946503 
	C213.998169,484.811920 211.801849,482.299469 213.797058,480.050720 
	C215.697006,477.909302 218.528717,479.497772 220.904282,479.993530 
	C222.343613,480.293915 223.857605,480.778473 225.057800,481.593140 
	C231.888962,486.230011 237.062546,486.321411 243.393738,481.629791 
	C245.455811,480.101746 247.480530,478.683868 250.238174,479.583496 
	C250.394455,479.634430 250.618408,479.719849 250.723007,479.652527 
	C258.671936,474.541077 268.370117,478.336700 276.687958,474.456635 
	C280.725677,472.573151 283.428925,470.442474 283.940033,465.921234 
	C284.066498,464.802795 284.254333,463.187561 284.992706,462.725372 
	C289.188110,460.099335 292.322540,455.703522 296.359741,453.633270 
	C302.058319,450.711090 308.936127,449.604156 315.439545,448.868256 
	C322.339355,448.087524 326.573151,452.504517 327.993286,460.620117 
	C328.003662,460.993011 328.031891,460.966583 328.031891,460.966583 
M287.484192,509.696320 
	C290.123627,512.706482 291.086365,510.619720 291.615753,508.203400 
	C293.260742,500.695099 293.404572,493.048065 293.333801,485.407898 
	C293.309479,482.782104 292.817780,480.160614 292.411743,476.331512 
	C290.390259,480.174805 291.758514,484.095856 288.348053,485.529755 
	C286.359650,484.965851 286.938629,482.579803 284.129028,482.049164 
	C283.998810,491.341431 282.834351,500.418640 287.484192,509.696320 
z"/>
<path fill="#000000" opacity="1.000000" stroke="none" 
	d="
M490.507843,400.557556 
	C488.713959,397.315887 486.959961,394.470154 485.558380,391.460297 
	C483.267944,386.541534 480.350769,382.198029 475.857758,379.007111 
	C474.829529,378.276855 473.551300,377.581787 473.511993,376.012238 
	C480.301178,372.338318 489.100159,376.758087 492.154602,383.402771 
	C497.023743,393.995422 497.779053,405.047241 498.863953,416.275726 
	C500.450104,432.691803 497.263397,448.175049 489.225067,462.243011 
	C485.338837,469.044403 477.618347,472.992950 471.741821,478.352112 
	C467.656738,482.077515 462.956238,484.580353 457.426025,486.771576 
	C456.710999,483.053528 458.791290,481.636169 460.617249,480.053802 
	C468.156067,473.520813 472.085846,464.308228 477.894501,456.488556 
	C479.859833,453.842773 479.090759,450.169495 478.339996,447.039062 
	C475.008118,445.954163 474.204468,449.774902 471.737000,449.973572 
	C470.641907,448.617920 471.542297,447.309174 471.724701,446.102234 
	C472.804321,438.958008 470.641327,433.337067 464.352112,429.497620 
	C463.933014,429.241791 463.399017,428.932495 463.242432,428.523926 
	C459.616577,419.065125 450.174896,412.570618 450.012573,401.222900 
	C449.893951,392.932526 449.240417,384.608093 447.942139,376.366211 
	C447.463440,373.327362 448.665466,372.337524 452.042847,373.057861 
	C460.243469,374.806915 464.605408,379.424072 469.194916,386.845551 
	C477.498993,400.273804 478.377014,415.676147 484.116272,429.649628 
	C486.463379,435.364197 485.733429,442.342590 486.446930,449.162567 
	C489.897461,447.979614 490.911743,445.088470 491.371796,442.623108 
	C493.606995,430.645874 494.639160,418.565552 492.941193,406.392426 
	C492.657379,404.357513 491.728088,402.604797 490.507843,400.557556 
z"/>
<path fill="#000000" opacity="1.000000" stroke="none" 
	d="
M585.566528,490.449585 
	C574.096252,514.993896 557.563843,535.268860 538.323608,553.531677 
	C535.937805,555.796387 533.780945,556.574402 530.915283,554.416626 
	C527.942505,552.178101 523.767822,551.835449 521.026062,548.437073 
	C525.761292,544.966309 526.078308,539.507507 527.855347,534.773621 
	C531.063904,526.226074 539.674927,523.370300 546.566711,529.292358 
	C550.500061,532.672302 553.016479,531.506775 555.794189,528.405151 
	C558.014038,525.926453 560.125427,523.350098 562.364258,520.889343 
	C563.546021,519.590393 564.522217,518.049744 564.297546,516.422424 
	C562.742432,505.159912 567.167603,494.377228 566.818298,483.230103 
	C566.682739,478.906067 566.540771,474.581848 566.343933,470.260345 
	C566.273376,468.710510 566.153381,467.072418 567.822632,466.379028 
	C569.764893,465.572266 570.955322,466.952515 571.888367,468.396454 
	C574.340332,472.191040 576.411865,476.120941 577.105469,480.710968 
	C577.440063,482.925171 577.781982,485.766418 580.700562,486.040680 
	C583.339783,486.288696 583.894470,483.662018 585.028748,481.843201 
	C587.687134,477.580658 589.237366,472.620026 593.133972,469.032532 
	C592.222534,476.644165 588.990784,483.385468 585.566528,490.449585 
z"/>
<path fill="#000000" opacity="1.000000" stroke="none" 
	d="
M327.988342,461.004517 
	C331.110443,462.223450 332.926056,464.691895 334.620239,467.473572 
	C340.358215,476.894775 347.883423,484.337708 358.262787,488.694702 
	C361.595825,490.093781 364.124695,492.203522 368.563293,491.342926 
	C371.623016,490.749664 375.576904,493.780640 378.873932,495.646423 
	C383.085785,498.029999 387.577606,498.812592 392.257599,498.964661 
	C401.605957,499.268463 410.707123,500.258728 417.981659,507.279053 
	C416.527222,509.589813 414.229004,509.145477 412.161438,509.257721 
	C402.102661,509.804016 392.306152,508.149475 382.602386,505.701385 
	C378.708282,504.718933 375.175537,504.598694 374.508240,511.087921 
	C369.810150,505.840546 375.614899,498.145264 369.098175,494.700409 
	C366.484100,496.699860 367.399231,499.429321 366.962219,501.755707 
	C366.305542,505.251099 364.676605,506.082367 361.896790,503.607483 
	C359.403015,501.387238 357.182281,499.072510 356.311310,495.570251 
	C355.869781,493.794678 354.507294,492.073120 352.767334,491.052582 
	C350.912445,491.578278 351.297668,493.181885 350.956085,494.364288 
	C350.330994,496.528229 348.895477,498.285217 346.749634,497.881378 
	C342.935089,497.163452 340.426605,498.976257 338.210815,501.291504 
	C336.034180,501.039490 335.520966,499.426758 335.140625,498.096405 
	C332.745514,489.718933 328.081970,481.832336 329.854004,472.537903 
	C330.559875,468.835541 328.163330,465.458832 328.024292,461.376648 
	C328.031891,460.966583 328.003662,460.993011 327.988342,461.004517 
z"/>
<path fill="#000000" opacity="1.000000" stroke="none" 
	d="
M471.709106,134.324097 
	C472.775909,129.611725 473.851807,125.262810 474.795898,120.885460 
	C475.548370,117.396759 477.948547,118.020569 480.199158,118.717941 
	C482.176636,119.330673 485.582520,118.835213 484.807678,122.467728 
	C482.324127,134.111130 479.615540,145.706528 476.980377,157.379791 
	C471.243988,157.702438 467.299469,156.457397 465.205597,150.841644 
	C462.848206,144.519104 459.746887,138.473938 455.910309,132.397430 
	C454.697998,137.647675 453.292816,142.863083 452.336334,148.159531 
	C451.612000,152.170258 449.466675,152.156494 446.260223,151.387726 
	C442.993225,150.604477 441.326294,149.604446 442.334412,145.659622 
	C444.674194,136.503906 446.491394,127.215782 448.645111,118.010506 
	C449.125549,115.957199 448.572632,112.701469 451.810669,112.700684 
	C455.196564,112.699867 458.802948,112.905563 460.546478,116.962334 
	C463.494598,123.821899 466.665497,130.585724 469.788361,137.490616 
	C471.462433,136.981064 471.352722,135.694672 471.709106,134.324097 
z"/>
<path fill="#000000" opacity="1.000000" stroke="none" 
	d="
M613.329529,247.470398 
	C607.962646,251.080734 607.439758,245.677521 605.388428,243.564011 
	C603.039917,241.144409 605.311035,239.859573 607.088013,238.545563 
	C615.244080,232.514755 623.376709,226.452225 631.523254,220.408554 
	C633.109558,219.231674 634.831848,217.453033 636.607605,219.867111 
	C640.927795,225.740372 646.347778,230.952026 648.919067,237.924530 
	C652.255615,246.971863 645.677368,256.691986 636.046875,256.125977 
	C630.507629,255.800385 628.830811,258.144165 627.518250,262.466705 
	C626.915588,264.451263 626.625610,266.732300 624.723389,268.127563 
	C617.810913,262.967834 617.201050,260.566071 620.605225,253.362839 
	C621.463196,251.547562 623.197266,249.877090 621.661438,247.414551 
	C618.949158,243.065430 616.341309,244.825348 613.329529,247.470398 
M634.348450,232.637817 
	C625.763733,236.626038 624.872620,239.681961 630.791931,244.775620 
	C632.911377,246.599426 635.053833,247.140060 637.543823,245.382675 
	C640.013245,243.639771 640.340332,241.318207 639.385010,238.787003 
	C638.499512,236.440918 636.988647,234.435013 634.348450,232.637817 
z"/>
<path fill="#000000" opacity="1.000000" stroke="none" 
	d="
M190.366150,193.708527 
	C198.764648,185.476151 196.183060,186.821426 205.300522,190.574295 
	C213.759552,194.056122 222.063202,197.917175 230.413910,201.658905 
	C232.046173,202.390289 233.855652,202.917053 234.978378,204.461212 
	C231.286087,210.582642 229.229568,211.544754 222.849304,209.797272 
	C221.310074,209.375702 220.264542,209.737183 219.246506,210.698181 
	C216.704636,213.097626 214.179565,215.514999 211.658554,217.936432 
	C210.491257,219.057617 209.756882,220.527969 210.451477,221.996170 
	C213.444794,228.323364 208.382980,230.393402 205.077164,233.282883 
	C203.499924,233.067398 203.146408,232.089203 202.810806,231.164215 
	C198.670197,219.752197 194.549271,208.333023 190.417709,196.917725 
	C190.074463,195.969406 189.735077,195.031723 190.366150,193.708527 
M208.608459,208.816162 
	C209.659500,207.642242 211.390518,206.906570 211.169754,204.695587 
	C208.572418,203.073166 206.134781,200.917236 202.040573,201.363541 
	C203.061508,203.928406 203.875198,206.057877 204.756409,208.159042 
	C205.441177,209.791763 206.440201,210.648407 208.608459,208.816162 
z"/>
<path fill="#000000" opacity="1.000000" stroke="none" 
	d="
M509.107391,163.074524 
	C507.291626,162.262497 505.752197,162.049973 504.607819,163.362793 
	C499.890228,168.774765 496.140656,164.682175 492.304321,162.573746 
	C491.957123,161.260681 492.437347,160.596054 493.069214,160.020813 
	C501.939941,151.944885 510.782684,143.837692 519.710144,135.824966 
	C522.749329,133.097198 531.808838,135.894196 531.824524,139.869171 
	C531.875854,152.956009 531.270935,166.045441 530.918274,179.126526 
	C523.822815,179.023178 521.244568,176.962189 520.707458,170.979828 
	C520.510925,168.790833 519.449280,167.692856 517.651672,166.898743 
	C514.910156,165.687592 512.185120,164.438843 509.107391,163.074524 
M514.259949,155.135986 
	C516.004089,157.076874 518.180969,157.973022 520.940735,158.113007 
	C522.076416,154.729797 521.774048,151.588669 521.330933,147.966461 
	C517.979858,149.668808 515.797913,151.800140 514.259949,155.135986 
z"/>
<path fill="#000000" opacity="1.000000" stroke="none" 
	d="
M328.300903,117.305923 
	C330.579773,116.550064 331.870667,117.425217 332.963043,118.871017 
	C340.391632,128.703125 347.832153,138.526215 355.245117,148.370071 
	C355.523102,148.739258 355.557709,149.291702 355.700317,149.741730 
	C349.972809,153.729095 346.896454,153.630554 342.723785,149.205902 
	C341.602081,148.016449 340.594666,147.318268 338.836731,147.840836 
	C335.494263,148.834442 332.082794,149.593994 328.710999,150.492111 
	C327.194489,150.896042 325.549225,151.708633 325.580902,153.325714 
	C325.726318,160.745850 320.078247,159.772537 315.088104,160.841125 
	C314.243988,154.179520 316.519745,148.153885 317.163879,142.002380 
	C317.716187,136.727631 319.166443,131.534195 319.538483,126.256775 
	C319.930359,120.697617 322.269806,117.660980 328.300903,117.305923 
M333.340485,135.939072 
	C331.974030,134.256516 331.096130,132.073059 328.691711,130.936249 
	C328.195038,133.494141 327.660004,135.568985 327.429901,137.677109 
	C327.279480,139.054962 326.822113,141.004303 328.796539,141.399689 
	C330.750031,141.790909 332.816345,141.075333 334.351868,139.891235 
	C335.814941,138.763016 334.253601,137.581223 333.340485,135.939072 
z"/>
<path fill="#000000" opacity="1.000000" stroke="none" 
	d="
M582.347656,182.551514 
	C574.628967,184.575470 567.300049,186.491196 559.248169,188.595886 
	C562.557739,192.205902 566.044678,194.120041 569.190063,196.435959 
	C575.171936,200.840332 575.206726,201.350006 568.968689,207.124878 
	C560.608337,201.103149 552.062805,195.104874 543.715881,188.841827 
	C541.160278,186.924286 542.742432,182.902557 546.869995,181.460510 
	C551.402222,179.877090 556.144165,178.891693 560.798889,177.661530 
	C565.088013,176.527985 569.382629,175.415421 574.702148,174.025116 
	C570.418762,170.803177 567.008484,167.987305 563.341003,165.559937 
	C560.491028,163.673599 560.016357,162.036316 562.128601,159.132294 
	C564.297546,156.150391 566.064636,156.489502 568.666687,158.433929 
	C574.929565,163.113922 581.390442,167.528229 587.688416,172.162506 
	C589.171753,173.254028 591.841614,173.863876 591.138733,176.434189 
	C590.522705,178.687042 588.982361,180.560043 586.565796,181.351730 
	C585.305725,181.764526 584.014587,182.082489 582.347656,182.551514 
z"/>
<path fill="#000000" opacity="1.000000" stroke="none" 
	d="
M285.507629,143.881287 
	C281.970093,144.430740 278.725128,143.854187 275.730286,145.200867 
	C274.200714,145.888672 272.338806,146.549957 272.879974,148.642105 
	C273.387177,150.602936 275.302643,150.751434 277.008362,150.581543 
	C280.145691,150.269012 283.259247,149.676559 286.400635,149.455612 
	C291.454742,149.100113 295.562500,150.674545 297.860443,155.615219 
	C300.130676,160.496323 298.929718,164.755768 295.427673,168.422073 
	C289.624481,174.497452 282.208130,176.594879 274.078766,176.060822 
	C267.959381,175.658798 269.890259,171.009964 269.925598,167.562195 
	C271.134003,166.221664 272.537292,166.694778 273.820435,166.661011 
	C275.982422,166.604141 278.228210,166.972488 280.289368,166.504333 
	C283.205505,165.841995 287.863190,165.632629 287.218079,161.705612 
	C286.565826,157.734909 282.470886,159.669159 279.632233,160.039352 
	C277.657654,160.296860 275.647217,160.266388 273.663788,160.471115 
	C268.655914,160.988022 264.801483,159.326508 262.652252,154.599991 
	C260.461792,149.782715 261.579987,145.328033 265.066559,141.718979 
	C270.184875,136.420929 276.852295,134.442612 284.048065,134.144043 
	C285.531281,134.082504 287.370544,134.448410 287.659058,136.186676 
	C288.102692,138.859314 289.098846,141.856064 285.507629,143.881287 
z"/>
<path fill="#000000" opacity="1.000000" stroke="none" 
	d="
M176.710449,233.125122 
	C183.692352,233.983063 184.824371,236.199478 181.276001,241.344727 
	C181.181534,241.481689 181.092255,241.622238 180.997589,241.759064 
	C175.180283,250.166870 175.040558,250.343124 182.916199,256.584290 
	C186.941360,259.774109 183.690338,261.637817 182.307739,263.960419 
	C180.841293,266.423859 179.275467,267.596649 176.358047,265.402435 
	C168.114258,259.202209 159.716019,253.204926 151.308014,247.227020 
	C148.848389,245.478271 147.986023,243.926285 150.109451,241.169174 
	C154.372147,235.634338 158.414780,229.926056 162.430389,224.206635 
	C164.204971,221.679108 165.818192,221.082016 168.537476,223.126572 
	C171.275162,225.184967 171.727539,226.823471 169.451340,229.591370 
	C166.636017,233.014847 164.259537,236.799210 161.759521,240.334213 
	C167.133728,245.633606 167.184555,245.630539 171.041382,240.493790 
	C172.837936,238.101044 174.644348,235.715698 176.710449,233.125122 
z"/>
<path fill="#000000" opacity="1.000000" stroke="none" 
	d="
M488.321594,497.720886 
	C488.467438,490.034454 486.704773,488.933563 480.227783,491.903717 
	C477.329285,493.232880 474.723633,495.419769 471.158997,495.322113 
	C474.295135,491.091766 478.661865,488.469574 483.207397,486.354126 
	C502.550873,477.352081 517.501770,463.170746 530.475586,446.654144 
	C533.135071,443.268372 535.225891,439.437195 537.596802,435.823120 
	C540.320618,431.671112 541.574707,431.553864 545.708801,435.020264 
	C538.949036,439.894104 526.030518,461.625092 529.092957,478.602631 
	C525.418640,479.885040 524.932556,476.928375 524.365051,474.752808 
	C523.967712,473.229401 524.290710,471.459106 524.549194,469.840149 
	C524.807678,468.221710 524.707153,466.968079 523.215881,465.926178 
	C521.645630,464.829071 520.097290,465.257172 519.134399,466.328125 
	C514.365295,471.632629 507.644928,474.769928 503.351959,480.519012 
	C501.744507,482.671631 499.545837,483.684296 497.392609,484.869354 
	C491.888916,487.898285 491.198029,489.491516 492.526794,495.587860 
	C493.417816,499.675751 493.027191,503.621826 490.653107,507.681366 
	C486.870667,504.699768 488.222748,501.261688 488.321594,497.720886 
z"/>
<path fill="#000000" opacity="1.000000" stroke="none" 
	d="
M238.800812,618.696960 
	C237.275696,622.793457 235.896255,626.532104 234.516815,630.270752 
	C234.744873,630.549866 234.972931,630.829041 235.200989,631.108154 
	C239.649246,627.898621 244.063782,624.640991 248.556717,621.495239 
	C252.000336,619.084229 252.213181,619.185303 255.546265,623.515625 
	C247.862106,628.717957 240.219574,633.931580 232.525177,639.067505 
	C231.010513,640.078613 229.689743,639.149170 228.474152,638.158447 
	C227.108627,637.045410 226.938034,635.726990 227.544006,634.146179 
	C228.794037,630.885315 230.060532,627.627441 231.174484,624.319214 
	C231.732208,622.662903 232.977448,621.093384 232.113586,618.670288 
	C227.591354,620.628967 224.095734,623.912903 220.209610,626.563660 
	C218.438797,627.771545 216.817505,629.402222 214.464584,627.478088 
	C212.365479,625.761597 212.661758,623.879578 213.452881,621.661011 
	C216.287918,613.710510 219.010544,605.719971 221.812668,597.637817 
	C226.090500,598.645752 227.214233,600.534790 225.657440,604.242371 
	C223.683609,608.943237 222.070862,613.795715 220.302383,618.582764 
	C220.612915,618.901794 220.923431,619.220886 221.233963,619.539917 
	C225.585236,616.462341 229.940842,613.390869 234.285446,610.303955 
	C235.849915,609.192383 237.289612,608.406982 239.231857,609.828796 
	C241.361542,611.387939 241.062164,613.086914 240.171188,615.069092 
	C239.694962,616.128479 239.350464,617.247192 238.800812,618.696960 
z"/>
<path fill="#000000" opacity="1.000000" stroke="none" 
	d="
M390.551819,147.876968 
	C385.134857,148.257828 380.165375,148.497208 375.207397,148.883942 
	C372.533966,149.092484 371.714478,147.716675 371.548187,145.368256 
	C370.775909,134.461075 369.800842,123.565430 369.227264,112.648376 
	C368.990112,108.134827 372.976135,110.193466 375.177673,109.595459 
	C378.202972,108.773689 379.997559,109.819717 380.177826,113.141953 
	C380.545959,119.926918 381.228577,126.709442 381.239136,133.493820 
	C381.245758,137.734146 382.803253,139.228775 386.844666,138.735641 
	C388.483429,138.535690 390.160950,138.640213 391.820984,138.630814 
	C394.588745,138.615158 397.879974,137.021729 398.370911,142.069183 
	C398.848389,146.978043 396.258545,147.672699 392.475403,147.555038 
	C391.987915,147.539871 391.494659,147.711670 390.551819,147.876968 
z"/>
<path fill="#000000" opacity="1.000000" stroke="none" 
	d="
M413.569031,664.437378 
	C417.479065,663.632019 420.895996,663.576233 424.350067,664.614136 
	C431.064880,666.631958 434.413971,671.264343 434.398834,678.786316 
	C434.384918,685.697144 430.728638,690.546326 424.231964,692.355469 
	C419.357178,693.713013 414.418579,693.398926 409.266968,693.278137 
	C407.016052,684.850525 407.755341,676.324585 406.916260,667.970276 
	C406.444336,663.271484 410.770691,665.217163 413.569031,664.437378 
M425.654388,671.804016 
	C423.273224,669.660828 420.425934,669.323059 417.340210,669.307312 
	C413.436646,669.287354 412.759705,671.722839 413.385223,674.545959 
	C414.375671,679.015930 410.395020,685.472900 417.486755,687.535095 
	C421.513977,688.706177 425.424805,686.798157 427.596069,682.898438 
	C429.675751,679.163208 428.906464,675.559998 425.654388,671.804016 
z"/>
<path fill="#000000" opacity="1.000000" stroke="none" 
	d="
M307.170898,648.126465 
	C310.558594,648.974365 313.589447,649.826965 316.563293,650.845947 
	C321.297699,652.468262 325.806763,654.751404 326.067932,660.428528 
	C326.319153,665.889404 323.479370,669.893372 318.249939,671.774963 
	C317.532990,675.288757 320.242462,678.244141 319.292603,681.765381 
	C315.997009,681.903503 313.827362,680.893860 313.387543,677.317810 
	C313.207245,675.852051 312.734222,674.407410 312.266907,672.995300 
	C311.461578,670.562134 309.230835,670.008240 307.138153,669.628723 
	C304.894470,669.221802 304.626190,671.280823 303.966156,672.755615 
	C303.181793,674.508179 302.822571,676.879822 299.915497,675.823853 
	C297.264465,674.860901 297.654877,672.914551 298.419647,670.921692 
	C301.310944,663.387024 302.589905,655.258179 307.170898,648.126465 
M320.275055,662.102783 
	C319.689209,658.246277 314.786194,654.366455 311.267029,655.010315 
	C308.882263,655.446655 309.159729,657.755432 308.531860,659.297546 
	C307.971741,660.673340 306.712860,662.215942 308.311371,663.855835 
	C311.115814,666.732910 317.204590,666.191895 320.275055,662.102783 
z"/>
<path fill="#000000" opacity="1.000000" stroke="none" 
	d="
M138.475983,515.697632 
	C144.513733,509.840881 149.595596,508.663300 155.881912,511.421204 
	C161.403931,513.843872 165.497177,520.070129 165.249023,526.204590 
	C164.999146,532.382080 162.092880,536.971985 156.292450,539.483765 
	C150.662369,541.921936 144.075058,540.426514 139.837646,535.800720 
	C134.764297,530.262573 134.197495,523.263977 138.475983,515.697632 
M159.326035,523.271179 
	C156.623596,517.520203 153.597260,515.445862 148.740997,516.308838 
	C144.523651,517.058228 141.948425,519.676331 141.325073,523.926086 
	C140.544769,529.246094 144.264450,534.132446 149.302261,534.638123 
	C155.182358,535.228271 159.305054,530.938110 159.326035,523.271179 
z"/>
<path fill="#000000" opacity="1.000000" stroke="none" 
	d="
M592.395264,224.496277 
	C589.886047,227.211121 588.313538,225.418091 586.816528,223.822495 
	C585.484558,222.402878 583.615356,221.400681 582.901733,218.649536 
	C591.152039,210.256561 599.429932,201.429245 608.204773,193.127213 
	C611.316345,190.183319 612.808533,194.757187 614.837280,196.177383 
	C617.022095,197.706818 617.079712,199.526764 615.060913,201.544586 
	C607.541565,209.060303 600.114136,216.667938 592.395264,224.496277 
z"/>
<path fill="#000000" opacity="1.000000" stroke="none" 
	d="
M240.611008,183.334732 
	C236.699158,177.526474 233.110199,171.927643 229.216293,166.549576 
	C226.536240,162.848007 229.369446,161.662384 231.658264,160.054062 
	C233.905777,158.474792 235.882553,156.841141 238.166443,160.359085 
	C243.864182,169.135498 249.721405,177.814133 255.736099,186.376434 
	C258.571686,190.413055 255.317261,191.392838 253.031784,193.188400 
	C250.489990,195.185349 248.524597,195.583496 246.634705,192.324509 
	C244.889069,189.314285 242.762604,186.524933 240.611008,183.334732 
z"/>
<path fill="#000000" opacity="1.000000" stroke="none" 
	d="
M666.826111,499.313538 
	C662.344421,497.817719 658.263123,496.368530 654.141541,495.044861 
	C651.470032,494.186890 650.195251,492.880768 651.477112,489.910400 
	C652.662048,487.164948 653.484802,484.265625 654.558777,481.469269 
	C656.156250,477.309479 658.842957,473.996796 663.536255,473.890472 
	C668.132507,473.786346 671.906372,475.863007 673.888000,480.381012 
	C674.148010,480.973877 674.534363,481.511322 674.838623,482.033966 
	C678.158752,482.314880 680.972656,479.902618 684.545593,480.861877 
	C684.761475,483.814056 683.859741,485.857452 680.620483,486.480621 
	C678.990173,486.794250 677.350037,487.137329 675.779480,487.662048 
	C673.342102,488.476318 672.865906,490.753052 672.481384,492.858459 
	C672.069214,495.114929 674.065247,495.412231 675.561523,496.091949 
	C677.243164,496.855835 679.808899,496.949432 678.670898,500.038208 
	C677.548279,503.084778 675.483521,502.244324 673.361450,501.493866 
	C671.320740,500.772125 669.260864,500.104675 666.826111,499.313538 
M660.508728,490.987518 
	C666.580139,493.077454 668.064880,492.104706 668.730408,485.847992 
	C669.055847,482.789062 668.055542,480.543182 665.084900,479.650848 
	C662.309387,478.817108 660.320007,480.667389 659.729919,482.885101 
	C659.072144,485.356842 655.023438,488.266602 660.508728,490.987518 
z"/>
<path fill="#000000" opacity="1.000000" stroke="none" 
	d="
M589.390320,603.378418 
	C585.636719,596.054077 586.143982,590.585876 590.824036,585.168335 
	C594.935303,580.409180 601.464172,578.458313 606.989929,580.337891 
	C612.887573,582.343994 616.916626,587.720215 617.089050,593.813782 
	C617.250000,599.500793 612.552246,606.344849 606.939026,608.601379 
	C600.769104,611.081726 594.600830,609.330994 589.390320,603.378418 
M609.463074,599.950073 
	C613.779114,593.970947 609.565491,586.202332 603.243286,585.378723 
	C598.681030,584.784302 594.807495,587.205688 593.086304,591.694031 
	C591.403015,596.083862 592.902832,599.568237 596.361023,602.262085 
	C599.932495,605.044189 604.527405,604.302795 609.463074,599.950073 
z"/>
<path fill="#000000" opacity="1.000000" stroke="none" 
	d="
M538.423950,649.705078 
	C539.641541,652.512512 541.283020,652.397766 543.359863,651.166443 
	C546.073120,649.557800 548.887512,648.120667 551.641296,646.579224 
	C553.290222,645.656189 554.426086,646.052490 555.269287,647.730347 
	C556.015808,649.215820 555.624146,650.303101 554.269043,651.076843 
	C549.652954,653.712585 545.024231,656.326538 540.389099,658.928833 
	C538.255066,660.126953 536.982361,659.033691 535.969971,657.223511 
	C532.402161,650.843750 528.888489,644.431885 525.203125,638.120483 
	C523.846802,635.797791 524.501526,634.500854 526.634094,633.333923 
	C530.714417,631.101257 534.741089,628.770569 538.795166,626.489807 
	C540.342773,625.619202 541.886292,625.000977 543.048584,627.044983 
	C544.151367,628.984314 543.182800,630.133850 541.514771,631.044006 
	C539.619324,632.078430 537.822937,633.327454 535.854614,634.188904 
	C531.529968,636.081787 530.782532,638.498596 534.665344,642.175049 
	C537.471008,640.633240 540.354431,639.062195 543.224182,637.466431 
	C544.825928,636.575684 546.263367,636.145264 547.449768,638.149780 
	C548.652100,640.181335 547.558594,641.210815 545.950134,642.102051 
	C543.915894,643.229248 541.868896,644.333923 539.843140,645.476257 
	C538.273499,646.361206 537.035645,647.410522 538.423950,649.705078 
z"/>
<path fill="#000000" opacity="1.000000" stroke="none" 
	d="
M458.027954,688.110474 
	C455.637512,687.920349 455.390228,686.213074 455.074921,684.855591 
	C453.424530,677.749512 451.982727,670.594788 450.304016,663.495850 
	C449.763184,661.208740 450.286774,660.084473 452.632172,659.590332 
	C458.136993,658.430603 463.612000,657.129150 469.174500,655.867920 
	C471.215698,658.804077 471.779541,660.792969 467.560272,661.630005 
	C464.022308,662.331970 460.558228,663.406433 456.856873,664.369141 
	C457.166473,666.390625 457.408997,667.974243 457.674896,669.710327 
	C461.245209,670.412354 464.295441,668.718506 467.490723,668.221436 
	C469.579010,667.896606 471.083099,667.914246 471.628937,670.357910 
	C472.179199,672.821411 470.498505,673.042297 468.806274,673.440125 
	C466.545837,673.971619 464.327301,674.680969 462.067871,675.217590 
	C460.130737,675.677734 459.110199,676.615417 459.717896,678.742920 
	C460.286285,680.732788 461.248413,682.019775 463.623993,681.455994 
	C466.689453,680.728394 469.781982,680.115479 472.854034,679.414490 
	C474.514679,679.035583 475.869385,679.117554 476.168335,681.202515 
	C476.419952,682.957275 475.769775,684.038879 473.951996,684.452332 
	C468.775269,685.629944 463.613617,686.873596 458.027954,688.110474 
z"/>
<path fill="#000000" opacity="1.000000" stroke="none" 
	d="
M649.559753,536.538208 
	C645.221924,534.321716 641.238708,532.230347 637.205505,530.240417 
	C634.729492,529.018860 634.280212,527.339722 635.558167,524.962036 
	C637.687134,521.001099 639.737061,516.997742 641.828491,513.016541 
	C642.674255,511.406586 643.766602,510.176056 645.777039,511.177094 
	C647.887756,512.228027 647.277039,513.788086 646.458252,515.395264 
	C644.807129,518.636475 643.206726,521.903564 641.640503,525.049194 
	C642.929321,527.156250 644.744507,527.494141 646.925720,528.332336 
	C648.511047,525.360413 650.065918,522.483521 651.583191,519.586975 
	C652.448181,517.935791 653.509949,516.839600 655.532776,517.829651 
	C657.691223,518.885986 657.087646,520.441895 656.300110,522.030029 
	C655.560303,523.521912 654.942261,525.093628 654.043762,526.483582 
	C651.510254,530.402954 652.455139,532.609375 657.292236,533.261536 
	C659.657776,530.487976 661.031921,527.081787 662.786682,523.907043 
	C663.741394,522.179810 664.465332,519.972839 667.205200,521.441650 
	C669.666016,522.760864 668.463501,524.497253 667.656982,526.107117 
	C665.138611,531.133606 662.570374,536.135132 660.055298,541.079956 
	C655.856628,540.328796 653.061035,538.086914 649.559753,536.538208 
z"/>
<path fill="#000000" opacity="1.000000" stroke="none" 
	d="
M354.335327,677.883545 
	C352.634277,677.651123 351.284912,677.293945 350.014069,677.478210 
	C347.950531,677.777344 347.692566,679.651733 347.497314,681.284668 
	C347.292297,682.999268 348.501221,683.469910 349.968445,683.732056 
	C353.230377,684.314819 356.458679,685.090393 359.725586,685.639099 
	C361.881653,686.001343 362.555481,687.244385 362.093201,689.158447 
	C361.629150,691.079956 360.163818,691.068481 358.534637,690.770752 
	C353.643616,689.877075 348.739838,689.052490 343.837860,688.219666 
	C341.363525,687.799255 340.568817,686.439087 341.030640,683.966858 
	C342.338409,676.966431 343.577881,669.951538 344.707794,662.920471 
	C345.132141,660.279785 346.259247,659.086609 349.036987,659.594482 
	C353.762695,660.458557 358.525696,661.122986 363.241119,662.036133 
	C364.676666,662.314026 366.195892,662.956116 365.683777,665.059692 
	C365.245087,666.861694 364.012787,667.480164 362.341675,667.263000 
	C360.042206,666.964111 357.664886,666.814148 355.491791,666.088562 
	C351.273224,664.679932 349.577576,666.219849 349.595398,670.579895 
	C351.945526,672.685791 355.125580,672.203918 357.891388,673.046936 
	C359.720428,673.604553 362.766754,673.239502 362.064514,676.652405 
	C361.438293,679.696045 359.018768,678.382141 357.188538,678.328369 
	C356.363953,678.304138 355.544250,678.115845 354.335327,677.883545 
z"/>
<path fill="#000000" opacity="1.000000" stroke="none" 
	d="
M269.973328,638.945007 
	C273.052368,637.107666 274.844452,632.676270 279.135742,635.148865 
	C282.937408,637.339233 281.500488,641.265564 281.012421,644.210815 
	C279.790405,651.585388 281.249908,659.214294 278.798737,666.832825 
	C275.399200,666.317261 273.309570,664.952332 274.124420,661.316711 
	C274.691284,658.787598 273.492950,657.532715 271.501007,656.650635 
	C267.231842,654.760315 263.367859,650.277466 258.149658,655.301941 
	C256.493561,656.896545 254.483871,655.211914 252.728195,652.942566 
	C258.412567,648.330566 264.056274,643.751526 269.973328,638.945007 
M271.717224,644.338867 
	C270.450104,645.565735 268.714874,646.377014 268.093628,648.432678 
	C269.793365,649.990906 271.641418,651.122803 274.265442,651.302002 
	C274.906189,648.245911 275.630463,645.456787 275.458374,642.522766 
	C273.844177,642.264282 273.218628,643.481445 271.717224,644.338867 
z"/>
<path fill="#000000" opacity="1.000000" stroke="none" 
	d="
M137.261261,487.968292 
	C136.752716,494.842682 134.662369,497.785095 130.237610,498.280884 
	C125.648300,498.795105 121.959152,495.995300 120.131638,490.436218 
	C119.081131,487.240723 118.713272,483.985046 119.677528,480.641052 
	C120.201302,478.824524 121.007263,477.653442 123.091614,477.792419 
	C125.508476,477.953491 125.441528,479.545166 125.361336,481.343781 
	C125.258202,483.657196 125.209572,485.992493 125.413612,488.293884 
	C125.570282,490.060974 126.575104,491.590912 128.550507,491.552826 
	C130.598572,491.513367 131.295288,489.751678 131.473862,488.074219 
	C131.719269,485.769012 131.608688,483.427216 131.682388,481.102081 
	C131.780701,478.000061 133.175613,475.722870 136.032150,474.401184 
	C138.895767,473.076202 141.553574,473.621399 144.017944,475.374268 
	C147.355087,477.747955 150.040253,485.459747 148.946289,489.341461 
	C148.457092,491.077271 147.660950,492.466431 145.523804,492.166901 
	C143.439178,491.874756 142.725922,490.613770 143.156906,488.616669 
	C143.191971,488.454163 143.259079,488.289551 143.252304,488.128357 
	C143.128906,485.198273 143.623428,480.949524 140.037384,480.813934 
	C136.017578,480.661896 137.733429,485.016754 137.261261,487.968292 
z"/>
<path fill="#000000" opacity="1.000000" stroke="none" 
	d="
M634.593750,565.342834 
	C632.490601,568.270813 634.448975,569.520447 636.272095,570.767639 
	C638.132690,572.040344 639.260986,573.343872 637.491760,575.611328 
	C635.813293,577.762512 634.376648,576.669556 632.837158,575.566895 
	C627.036987,571.412659 621.256104,567.230957 615.423035,563.123352 
	C613.248657,561.592163 612.699402,560.023865 614.504822,557.787109 
	C616.482483,555.336914 618.131592,552.614136 620.177979,550.228088 
	C624.514282,545.171997 629.305542,544.464355 634.213501,547.922668 
	C638.606079,551.017883 639.663208,556.354187 636.885864,561.661987 
	C636.272278,562.834595 635.496948,563.922607 634.593750,565.342834 
M632.757568,555.786499 
	C632.244629,553.186279 630.547607,551.283142 628.048462,551.603516 
	C623.992920,552.123413 622.431396,555.683716 620.610596,559.041321 
	C622.977783,561.291687 625.209412,564.546814 628.306091,563.703430 
	C630.945801,562.984497 632.458313,559.682617 632.757568,555.786499 
z"/>
<path fill="#000000" opacity="1.000000" stroke="none" 
	d="
M165.530121,555.488953 
	C169.087769,552.979370 172.431824,550.780396 175.592575,548.343689 
	C178.194397,546.337891 179.932709,546.785339 181.674515,549.476257 
	C183.932770,552.965088 186.478424,556.267090 188.874268,559.667908 
	C189.804565,560.988403 190.341171,562.317444 188.680054,563.561646 
	C186.960464,564.849670 185.657501,564.403870 184.467010,562.775269 
	C182.433563,559.993469 180.337601,557.257324 178.354477,554.617249 
	C175.989502,555.290161 174.739624,556.538696 173.643219,558.121033 
	C174.276352,560.999939 176.322479,563.041870 177.884338,565.355835 
	C178.876907,566.826294 179.724197,568.252197 177.783600,569.635193 
	C176.014740,570.895813 174.711090,570.244080 173.573257,568.665527 
	C171.927856,566.382690 170.239960,564.130554 168.609680,561.918884 
	C165.569382,561.944031 164.020355,564.176392 161.986740,565.465881 
	C160.155563,566.626892 158.570297,567.580688 156.949173,565.135071 
	C155.497101,562.944580 156.738449,561.785889 158.338089,560.640930 
	C160.638718,558.994141 162.937576,557.344910 165.530121,555.488953 
z"/>
<path fill="#000000" opacity="1.000000" stroke="none" 
	d="
M495.834808,657.172607 
	C498.594238,660.245483 501.112701,663.056702 504.668762,667.026184 
	C504.668762,659.541809 504.725189,653.494324 504.645782,647.448547 
	C504.603973,644.264465 505.532135,642.249756 509.877197,642.795776 
	C510.628876,647.556213 510.101746,652.472473 510.031647,657.339783 
	C509.969635,661.647949 509.711487,665.963196 509.309540,670.253662 
	C508.967224,673.907837 505.472046,675.615295 503.010468,673.123474 
	C496.508087,666.541321 490.340637,659.628235 483.923004,652.721130 
	C486.849579,649.531799 489.173340,649.411377 491.592865,652.473877 
	C492.824860,654.033203 494.253876,655.436890 495.834808,657.172607 
z"/>
<path fill="#000000" opacity="1.000000" stroke="none" 
	d="
M387.144867,472.896088 
	C388.725891,475.840302 391.734344,477.663025 391.756500,481.437683 
	C388.421356,481.444153 387.107056,479.071594 385.581909,477.335602 
	C379.669769,470.606323 374.478455,463.294769 368.635406,456.474945 
	C363.420624,450.388336 363.317749,441.990540 363.720734,433.752899 
	C370.977203,447.107758 377.415741,460.795227 387.144867,472.896088 
z"/>
<path fill="#000000" opacity="1.000000" stroke="none" 
	d="
M188.474670,592.508484 
	C190.781891,590.327637 192.711441,588.244873 194.894958,586.475525 
	C198.498276,583.555664 201.046173,580.743469 196.071152,576.789490 
	C194.846558,575.816223 194.995331,574.462158 196.203171,573.348572 
	C197.296692,572.340332 198.511917,571.812805 199.689545,573.047729 
	C204.035645,577.605347 208.333664,582.209229 212.616745,586.826233 
	C213.710510,588.005310 213.525162,589.212708 212.410095,590.333496 
	C211.094131,591.656189 209.581650,591.758728 208.578384,590.268250 
	C205.041962,585.014526 202.178558,587.162170 198.987381,590.707153 
	C196.332123,593.656738 193.328888,596.303772 190.377945,598.972229 
	C188.816040,600.384705 187.129272,602.224731 184.939865,599.724365 
	C182.771317,597.247803 184.811707,595.882996 186.351013,594.398438 
	C186.947266,593.823425 187.589706,593.296326 188.474670,592.508484 
z"/>
<path fill="#000000" opacity="1.000000" stroke="none" 
	d="
M587.027466,626.877319 
	C584.026672,631.145752 579.583313,633.276489 575.917236,636.353333 
	C574.226074,637.772644 572.871155,636.821411 571.743958,635.312683 
	C567.264404,629.317139 562.777161,623.327393 558.269836,617.352661 
	C557.110413,615.815857 556.727295,614.441650 558.592712,613.131775 
	C560.377502,611.878601 561.711487,612.538574 562.861938,614.027344 
	C565.505859,617.448853 568.204773,620.831970 570.733704,624.337219 
	C575.502319,630.946960 575.180908,630.450806 580.863953,625.975098 
	C583.013733,624.282043 585.327087,622.312134 587.027466,626.877319 
z"/>
<path fill="#000000" opacity="1.000000" stroke="none" 
	d="
M551.356689,457.554504 
	C553.998413,465.518250 552.043884,473.427704 552.532959,481.234711 
	C552.615784,482.557434 551.775146,483.951019 550.306519,484.181519 
	C548.462341,484.470978 547.160400,483.307068 546.365662,481.752594 
	C544.380981,477.870697 546.781921,460.753052 549.783813,457.373230 
	C549.993164,457.137573 550.676147,457.322632 551.356689,457.554504 
z"/>
<path fill="#000000" opacity="1.000000" stroke="none" 
	d="
M399.377808,456.458771 
	C400.875488,457.671600 401.876007,458.813019 400.843445,460.450134 
	C399.949615,461.867401 398.487183,462.155426 396.919312,461.921906 
	C392.961487,461.332367 389.744476,456.309509 390.633545,451.800385 
	C394.156464,451.963928 396.245270,454.883484 399.377808,456.458771 
z"/>
<path fill="#000000" opacity="1.000000" stroke="none" 
	d="
M515.804993,553.565430 
	C518.895325,553.075256 521.768005,552.131104 523.965210,556.412048 
	C518.734192,556.906860 514.061218,557.348938 508.468994,557.877991 
	C510.546997,554.529907 513.207214,554.496277 515.804993,553.565430 
z"/>
<path fill="#000000" opacity="1.000000" stroke="none" 
	d="
M517.194580,564.517090 
	C518.589783,565.753479 520.006409,564.205261 521.517273,565.223755 
	C519.736755,568.096191 517.188232,569.683838 514.077148,571.004639 
	C513.314697,565.721375 513.746277,564.844116 517.194580,564.517090 
z"/>
<path fill="#000000" opacity="1.000000" stroke="none" 
	d="
M380.840851,516.327209 
	C385.863098,516.914917 384.178070,520.636292 384.509918,523.471985 
	C382.284088,521.648743 379.467987,520.174011 380.840851,516.327209 
z"/>
<path fill="#000000" opacity="1.000000" stroke="none" 
	d="
M525.848022,562.081543 
	C525.782104,561.027100 525.824890,560.216614 526.013794,559.441711 
	C526.289246,558.311584 526.689819,557.132141 528.206665,557.464050 
	C528.765198,557.586243 529.401489,558.069702 529.690002,558.568970 
	C530.436035,559.860046 529.510803,560.671509 528.586487,561.373047 
	C527.837891,561.941162 527.138916,562.717529 525.848022,562.081543 
z"/>
<path fill="#000000" opacity="1.000000" stroke="none" 
	d="
M326.103394,333.333282 
	C332.177582,321.562103 338.891357,317.866486 351.932343,318.870422 
	C360.064484,319.496460 367.113617,329.106354 364.504822,336.780701 
	C363.052155,341.054047 363.863953,345.661316 361.907257,350.334076 
	C357.975128,345.956055 353.564484,342.546509 355.431244,336.010040 
	C356.416199,332.561371 354.051270,330.903076 351.248230,329.663513 
	C344.289886,326.586365 337.117584,328.659729 330.804352,335.524689 
	C329.432556,337.016357 328.644226,339.432587 325.892334,339.200073 
	C323.977692,337.298462 325.409607,335.486481 326.103394,333.333282 
z"/>
<path fill="#000000" opacity="1.000000" stroke="none" 
	d="
M382.326050,312.009399 
	C394.306946,308.165741 405.839813,307.684753 417.261353,312.671204 
	C419.407562,313.608185 421.499115,314.507965 422.296692,317.051910 
	C420.824371,319.012939 418.882538,318.395844 417.273834,317.862640 
	C409.468018,315.275482 401.767639,316.898193 394.110687,318.387848 
	C390.802368,319.031494 387.541168,319.364105 384.205841,319.241791 
	C382.340485,319.173370 380.394318,319.044983 379.584412,316.990662 
	C378.650787,314.622559 380.110718,313.254181 382.326050,312.009399 
z"/>
<path fill="#000000" opacity="1.000000" stroke="none" 
	d="
M415.867493,323.592133 
	C416.788025,327.584961 413.954712,328.233246 411.591278,328.074982 
	C406.149902,327.710571 402.087891,330.329132 398.242950,333.453857 
	C395.834778,335.410919 393.783173,337.180176 391.233978,333.801727 
	C390.975677,333.459412 390.358795,333.237030 389.899506,333.221558 
	C387.083344,333.126709 384.837036,332.240784 384.925964,328.977783 
	C385.023224,325.409149 387.521393,323.399445 390.346069,321.794067 
	C390.876587,321.492493 391.695038,321.356049 392.269379,321.523956 
	C402.061920,324.386627 404.639954,324.572235 414.667175,323.035278 
	C414.957367,322.990784 415.289825,323.222015 415.867493,323.592133 
z"/>
<path fill="#000000" opacity="1.000000" stroke="none" 
	d="
M403.209534,368.179504 
	C410.743073,369.093384 414.042511,373.863037 412.014221,380.330170 
	C403.952026,380.288818 403.952026,380.288818 397.371429,371.062744 
	C398.537842,368.906128 400.772034,368.719238 403.209534,368.179504 
z"/>
<path fill="#000000" opacity="1.000000" stroke="none" 
	d="
M341.624786,339.501526 
	C339.931396,340.599335 338.647705,341.676300 337.218628,342.501434 
	C335.990387,343.210602 334.362030,344.438385 333.298309,342.621338 
	C332.236694,340.807861 332.947021,338.428894 334.837555,338.035645 
	C340.721588,336.811707 346.264130,333.261780 352.652618,334.928101 
	C352.476746,340.652557 350.685883,342.012939 345.787384,340.165924 
	C344.532501,339.692780 343.369537,339.045288 341.624786,339.501526 
z"/>
<path fill="#000000" opacity="1.000000" stroke="none" 
	d="
M384.042297,400.348389 
	C386.188202,400.482849 388.122864,400.122589 389.345367,401.933228 
	C385.921387,405.201477 379.616455,405.961212 375.398956,403.536041 
	C377.209625,399.929474 380.844360,401.189026 384.042297,400.348389 
z"/>
</svg>